<svg width="57" height="32" viewBox="0 0 57 32" fill="none" xmlns="http://www.w3.org/2000/svg">
<g filter="url(#filter0_d_10_61)">
<path d="M5.4 15C5.09333 15 4.85333 14.9467 4.68 14.84C4.52 14.72 4.40667 14.52 4.34 14.24L1.34 2.06L1.3 1.82C1.3 1.54 1.5 1.4 1.9 1.4H5.3C5.55333 1.4 5.74 1.44667 5.86 1.54C5.98 1.62 6.05333 1.75333 6.08 1.94L6.86 6.7L8.06 3.06C8.14 2.82 8.24 2.66 8.36 2.58C8.49333 2.48667 8.69333 2.44 8.96 2.44H10.52C10.7867 2.44 10.98 2.48667 11.1 2.58C11.2333 2.66 11.34 2.82 11.42 3.06L12.62 6.7L13.4 1.94C13.4267 1.75333 13.5 1.62 13.62 1.54C13.74 1.44667 13.9267 1.4 14.18 1.4H17.6C18 1.4 18.2 1.54 18.2 1.82L18.16 2.06L15.14 14.24C15.0733 14.52 14.9533 14.72 14.78 14.84C14.62 14.9467 14.3867 15 14.08 15H11.9C11.6067 15 11.3733 14.9467 11.2 14.84C11.04 14.72 10.92 14.52 10.84 14.24L9.74 10.36L8.64 14.24C8.56 14.52 8.43333 14.72 8.26 14.84C8.1 14.9467 7.87333 15 7.58 15H5.4ZM16.1306 15C15.8373 15 15.6906 14.86 15.6906 14.58C15.6906 14.46 15.724 14.3133 15.7906 14.14L20.7706 2.16C20.8906 1.88 21.024 1.68667 21.1706 1.58C21.3306 1.46 21.5506 1.4 21.8306 1.4H24.0106C24.2906 1.4 24.504 1.46 24.6506 1.58C24.8106 1.68667 24.9506 1.88 25.0706 2.16L30.0306 14.14C30.0973 14.3133 30.1306 14.46 30.1306 14.58C30.1306 14.86 29.984 15 29.6906 15H25.9306C25.5173 15 25.2573 14.82 25.1506 14.46L24.6706 12.98H21.1306L20.6706 14.46C20.564 14.82 20.304 15 19.8906 15H16.1306ZM23.6906 9.82L22.9106 7.34L22.1306 9.82H23.6906ZM31.3297 15C30.8897 15 30.5764 14.9067 30.3897 14.72C30.2164 14.5333 30.1297 14.2467 30.1297 13.86V2.54C30.1297 2.15333 30.2164 1.86667 30.3897 1.68C30.5764 1.49333 30.8897 1.4 31.3297 1.4H36.1097C38.1097 1.4 39.563 1.8 40.4697 2.6C41.3897 3.38667 41.8497 4.58 41.8497 6.18C41.8497 7.14 41.683 7.95333 41.3497 8.62C41.0297 9.27333 40.5297 9.78667 39.8497 10.16L41.7097 14.14C41.763 14.2467 41.7897 14.3667 41.7897 14.5C41.7897 14.6467 41.7364 14.7667 41.6297 14.86C41.5364 14.9533 41.4097 15 41.2497 15H37.8697C37.6564 15 37.483 14.9733 37.3497 14.92C37.2297 14.8533 37.143 14.7467 37.0897 14.6L35.6097 10.88H34.9297V13.86C34.9297 14.2467 34.8364 14.5333 34.6497 14.72C34.4764 14.9067 34.163 15 33.7097 15H31.3297ZM35.6897 7.54C36.1164 7.54 36.4497 7.42667 36.6897 7.2C36.943 6.97333 37.0697 6.63333 37.0697 6.18C37.0697 5.71333 36.943 5.36667 36.6897 5.14C36.4497 4.91333 36.1164 4.8 35.6897 4.8H34.3297V7.54H35.6897ZM47.7645 15.3C46.5512 15.3 45.4245 15.1733 44.3845 14.92C43.3445 14.6667 42.5045 14.3133 41.8645 13.86C41.5979 13.6733 41.4645 13.4933 41.4645 13.32C41.4645 13.2 41.5112 13.0733 41.6045 12.94L42.7645 11.12C42.8845 10.9467 43.0045 10.86 43.1245 10.86C43.2312 10.86 43.3579 10.9067 43.5045 11C43.9845 11.2933 44.5312 11.5267 45.1445 11.7C45.7712 11.86 46.3779 11.94 46.9645 11.94C47.4579 11.94 47.8112 11.8733 48.0245 11.74C48.2512 11.6067 48.3645 11.4 48.3645 11.12C48.3645 10.8133 48.2179 10.5667 47.9245 10.38C47.6312 10.1933 47.1245 9.96 46.4045 9.68C45.0579 9.16 43.9979 8.57333 43.2245 7.92C42.4512 7.25333 42.0645 6.37333 42.0645 5.28C42.0645 3.89333 42.5445 2.85333 43.5045 2.16C44.4779 1.45333 45.7845 1.1 47.4245 1.1C48.5712 1.1 49.5445 1.2 50.3445 1.4C51.1579 1.6 51.8645 1.91333 52.4645 2.34C52.7312 2.52667 52.8645 2.70667 52.8645 2.88C52.8645 3 52.8179 3.12667 52.7245 3.26L51.5645 5.08C51.4445 5.26667 51.3245 5.36 51.2045 5.36C51.1245 5.36 50.9979 5.30667 50.8245 5.2C50.5045 4.98667 50.1245 4.81333 49.6845 4.68C49.2445 4.53333 48.7712 4.46 48.2645 4.46C47.7979 4.46 47.4445 4.52667 47.2045 4.66C46.9645 4.79333 46.8445 5.00667 46.8445 5.3C46.8445 5.54 46.9245 5.74 47.0845 5.9C47.2579 6.06 47.4712 6.2 47.7245 6.32C47.9779 6.42667 48.4179 6.60667 49.0445 6.86C50.0445 7.26 50.8312 7.64667 51.4045 8.02C51.9779 8.38 52.4112 8.82 52.7045 9.34C52.9979 9.84667 53.1445 10.4933 53.1445 11.28C53.1445 12.48 52.6912 13.4533 51.7845 14.2C50.8912 14.9333 49.5512 15.3 47.7645 15.3ZM2.9 31C2.46 31 2.14667 30.9067 1.96 30.72C1.78667 30.5333 1.7 30.2467 1.7 29.86V18.54C1.7 18.1533 1.78667 17.8667 1.96 17.68C2.14667 17.4933 2.46 17.4 2.9 17.4H7.68C9.68 17.4 11.1333 17.8 12.04 18.6C12.96 19.3867 13.42 20.58 13.42 22.18C13.42 23.78 12.96 24.9733 12.04 25.76C11.1333 26.5467 9.68667 26.94 7.7 26.94H6.5V29.86C6.5 30.2467 6.40667 30.5333 6.22 30.72C6.04667 30.9067 5.73333 31 5.28 31H2.9ZM7.26 23.54C7.68667 23.54 8.02 23.4267 8.26 23.2C8.51333 22.9733 8.64 22.6333 8.64 22.18C8.64 21.7133 8.51333 21.3667 8.26 21.14C8.02 20.9133 7.68667 20.8 7.26 20.8H5.9V23.54H7.26ZM14.2242 31C13.7842 31 13.4709 30.9067 13.2842 30.72C13.1109 30.5333 13.0242 30.2467 13.0242 29.86V18.54C13.0242 18.1533 13.1109 17.8667 13.2842 17.68C13.4709 17.4933 13.7842 17.4 14.2242 17.4H22.5042C22.9309 17.4 23.2176 17.4933 23.3642 17.68C23.5242 17.8533 23.6042 18.14 23.6042 18.54V19.66C23.6042 20.06 23.5242 20.3533 23.3642 20.54C23.2176 20.7133 22.9309 20.8 22.5042 20.8H17.8242V22.52H20.7042C21.1309 22.52 21.4176 22.6133 21.5642 22.8C21.7242 22.9733 21.8042 23.26 21.8042 23.66V24.74C21.8042 25.14 21.7242 25.4333 21.5642 25.62C21.4176 25.7933 21.1309 25.88 20.7042 25.88H17.8242V27.6H22.4842C22.9109 27.6 23.1976 27.6933 23.3442 27.88C23.5042 28.0533 23.5842 28.34 23.5842 28.74V29.86C23.5842 30.26 23.5042 30.5533 23.3442 30.74C23.1976 30.9133 22.9109 31 22.4842 31H14.2242ZM24.7086 31C24.2686 31 23.9553 30.9067 23.7686 30.72C23.5953 30.5333 23.5086 30.2467 23.5086 29.86V18.54C23.5086 18.1533 23.5953 17.8667 23.7686 17.68C23.9553 17.4933 24.2686 17.4 24.7086 17.4H29.3086C34.0153 17.4 36.3686 19.6667 36.3686 24.2C36.3686 26.44 35.7619 28.1333 34.5486 29.28C33.3486 30.4267 31.6019 31 29.3086 31H24.7086ZM29.4886 27.6C30.2353 27.6 30.7686 27.3533 31.0886 26.86C31.4219 26.3667 31.5886 25.48 31.5886 24.2C31.5886 22.92 31.4219 22.0333 31.0886 21.54C30.7686 21.0467 30.2353 20.8 29.4886 20.8H28.3086V27.6H29.4886ZM37.5758 31C37.1358 31 36.8224 30.9067 36.6358 30.72C36.4624 30.5333 36.3758 30.2467 36.3758 29.86V18.54C36.3758 18.1533 36.4624 17.8667 36.6358 17.68C36.8224 17.4933 37.1358 17.4 37.5758 17.4H39.9558C40.4091 17.4 40.7224 17.4933 40.8958 17.68C41.0824 17.8533 41.1758 18.14 41.1758 18.54V29.86C41.1758 30.2467 41.0824 30.5333 40.8958 30.72C40.7224 30.9067 40.4091 31 39.9558 31H37.5758ZM41.6072 31C41.3139 31 41.1672 30.86 41.1672 30.58C41.1672 30.46 41.2005 30.3133 41.2672 30.14L46.2472 18.16C46.3672 17.88 46.5005 17.6867 46.6472 17.58C46.8072 17.46 47.0272 17.4 47.3072 17.4H49.4872C49.7672 17.4 49.9805 17.46 50.1272 17.58C50.2872 17.6867 50.4272 17.88 50.5472 18.16L55.5072 30.14C55.5739 30.3133 55.6072 30.46 55.6072 30.58C55.6072 30.86 55.4605 31 55.1672 31H51.4072C50.9939 31 50.7339 30.82 50.6272 30.46L50.1472 28.98H46.6072L46.1472 30.46C46.0405 30.82 45.7805 31 45.3672 31H41.6072ZM49.1672 25.82L48.3872 23.34L47.6072 25.82H49.1672Z" fill="#0E0351"/>
<path d="M4.68 14.84L4.53 15.04L4.53919 15.0469L4.54898 15.0529L4.68 14.84ZM4.34 14.24L4.58321 14.1821L4.58275 14.1802L4.34 14.24ZM1.34 2.06L1.0934 2.1011L1.09497 2.11052L1.09725 2.11979L1.34 2.06ZM1.3 1.82H1.05V1.84069L1.0534 1.8611L1.3 1.82ZM5.86 1.54L5.70652 1.73734L5.71373 1.74295L5.72133 1.74801L5.86 1.54ZM6.08 1.94L5.83246 1.97536L5.83329 1.98043L6.08 1.94ZM6.86 6.7L6.61329 6.74043L7.09743 6.77827L6.86 6.7ZM8.06 3.06L7.82283 2.98094L7.82257 2.98173L8.06 3.06ZM8.36 2.58L8.49871 2.78806L8.50337 2.78481L8.36 2.58ZM11.1 2.58L10.9465 2.77734L10.9584 2.78661L10.9714 2.79437L11.1 2.58ZM11.42 3.06L11.6574 2.98173L11.6572 2.98094L11.42 3.06ZM12.62 6.7L12.3826 6.77827L12.8667 6.74043L12.62 6.7ZM13.4 1.94L13.6468 1.98043L13.6475 1.97535L13.4 1.94ZM13.62 1.54L13.7587 1.74801L13.7663 1.74295L13.7735 1.73734L13.62 1.54ZM18.2 1.82L18.4466 1.8611L18.45 1.84069V1.82H18.2ZM18.16 2.06L18.4027 2.12016L18.405 2.11071L18.4066 2.1011L18.16 2.06ZM15.14 14.24L14.8973 14.1798L14.8968 14.1821L15.14 14.24ZM14.78 14.84L14.9187 15.048L14.9223 15.0455L14.78 14.84ZM11.2 14.84L11.05 15.04L11.0592 15.0469L11.069 15.0529L11.2 14.84ZM10.84 14.24L10.5995 14.3082L10.5996 14.3087L10.84 14.24ZM9.74 10.36L9.98052 10.2918L9.74 9.44343L9.49948 10.2918L9.74 10.36ZM8.64 14.24L8.88038 14.3087L8.88052 14.3082L8.64 14.24ZM8.26 14.84L8.3987 15.048L8.4023 15.0455L8.26 14.84ZM5.4 14.75C5.11781 14.75 4.9298 14.7002 4.81102 14.6271L4.54898 15.0529C4.77686 15.1932 5.06886 15.25 5.4 15.25V14.75ZM4.83 14.64C4.73346 14.5676 4.64216 14.4297 4.5832 14.1821L4.0968 14.2979C4.17118 14.6103 4.30654 14.8724 4.53 15.04L4.83 14.64ZM4.58275 14.1802L1.58275 2.00021L1.09725 2.11979L4.09726 14.2998L4.58275 14.1802ZM1.5866 2.0189L1.5466 1.7789L1.0534 1.8611L1.0934 2.1011L1.5866 2.0189ZM1.55 1.82C1.55 1.74774 1.57079 1.72561 1.59337 1.70981C1.6322 1.68262 1.7215 1.65 1.9 1.65V1.15C1.6785 1.15 1.4678 1.18737 1.30663 1.30019C1.12921 1.42439 1.05 1.61226 1.05 1.82H1.55ZM1.9 1.65H5.3V1.15H1.9V1.65ZM5.3 1.65C5.5316 1.65 5.6512 1.69432 5.70652 1.73734L6.01349 1.34266C5.8288 1.19902 5.57506 1.15 5.3 1.15V1.65ZM5.72133 1.74801C5.76528 1.77732 5.81263 1.83617 5.83251 1.97535L6.32749 1.90464C6.29404 1.67049 6.19472 1.46268 5.99868 1.33199L5.72133 1.74801ZM5.83329 1.98043L6.61329 6.74043L7.10671 6.65957L6.32671 1.89957L5.83329 1.98043ZM7.09743 6.77827L8.29743 3.13827L7.82257 2.98173L6.62257 6.62173L7.09743 6.77827ZM8.29717 3.13906C8.37144 2.91625 8.44861 2.82139 8.49868 2.78801L8.22132 2.37199C8.03139 2.49861 7.90856 2.72374 7.82283 2.98094L8.29717 3.13906ZM8.50337 2.78481C8.57553 2.73429 8.71483 2.69 8.96 2.69V2.19C8.67183 2.19 8.41114 2.23904 8.21664 2.37519L8.50337 2.78481ZM8.96 2.69H10.52V2.19H8.96V2.69ZM10.52 2.69C10.7685 2.69 10.8929 2.73561 10.9465 2.77734L11.2535 2.38266C11.0671 2.23772 10.8048 2.19 10.52 2.19V2.69ZM10.9714 2.79437C11.0299 2.8295 11.1106 2.92249 11.1828 3.13906L11.6572 2.98094C11.5694 2.71751 11.4367 2.4905 11.2286 2.36563L10.9714 2.79437ZM11.1826 3.13827L12.3826 6.77827L12.8574 6.62173L11.6574 2.98173L11.1826 3.13827ZM12.8667 6.74043L13.6467 1.98043L13.1533 1.89957L12.3733 6.65957L12.8667 6.74043ZM13.6475 1.97535C13.6674 1.83617 13.7147 1.77732 13.7587 1.74801L13.4813 1.33199C13.2853 1.46268 13.186 1.67049 13.1525 1.90464L13.6475 1.97535ZM13.7735 1.73734C13.8288 1.69432 13.9484 1.65 14.18 1.65V1.15C13.9049 1.15 13.6512 1.19902 13.4665 1.34266L13.7735 1.73734ZM14.18 1.65H17.6V1.15H14.18V1.65ZM17.6 1.65C17.7785 1.65 17.8678 1.68262 17.9066 1.70981C17.9292 1.72561 17.95 1.74774 17.95 1.82H18.45C18.45 1.61226 18.3708 1.42439 18.1934 1.30019C18.0322 1.18737 17.8215 1.15 17.6 1.15V1.65ZM17.9534 1.7789L17.9134 2.0189L18.4066 2.1011L18.4466 1.8611L17.9534 1.7789ZM17.9173 1.99983L14.8973 14.1798L15.3827 14.3002L18.4027 2.12016L17.9173 1.99983ZM14.8968 14.1821C14.8392 14.4242 14.7444 14.5606 14.6377 14.6345L14.9223 15.0455C15.1623 14.8794 15.3075 14.6158 15.3832 14.2979L14.8968 14.1821ZM14.6413 14.632C14.5402 14.6994 14.3642 14.75 14.08 14.75V15.25C14.4092 15.25 14.6998 15.1939 14.9187 15.048L14.6413 14.632ZM14.08 14.75H11.9V15.25H14.08V14.75ZM11.9 14.75C11.6336 14.75 11.4512 14.7011 11.331 14.6271L11.069 15.0529C11.2954 15.1923 11.5797 15.25 11.9 15.25V14.75ZM11.35 14.64C11.2496 14.5647 11.152 14.4219 11.0804 14.1713L10.5996 14.3087C10.688 14.6181 10.8304 14.8753 11.05 15.04L11.35 14.64ZM11.0805 14.1718L9.98052 10.2918L9.49948 10.4282L10.5995 14.3082L11.0805 14.1718ZM9.49948 10.2918L8.39948 14.1718L8.88052 14.3082L9.98052 10.4282L9.49948 10.2918ZM8.39962 14.1713C8.3295 14.4167 8.22819 14.558 8.1177 14.6345L8.4023 15.0455C8.63848 14.882 8.7905 14.6233 8.88038 14.3087L8.39962 14.1713ZM8.12133 14.632C8.01872 14.7004 7.84815 14.75 7.58 14.75V15.25C7.89852 15.25 8.18128 15.1929 8.39868 15.048L8.12133 14.632ZM7.58 14.75H5.4V15.25H7.58V14.75ZM15.7906 14.14L15.5597 14.044L15.5573 14.0503L15.7906 14.14ZM20.7706 2.16L20.5408 2.06151L20.5398 2.06404L20.7706 2.16ZM21.1706 1.58L21.3177 1.78221L21.3206 1.78L21.1706 1.58ZM24.6506 1.58L24.4923 1.77349L24.5018 1.78123L24.512 1.78801L24.6506 1.58ZM25.0706 2.16L25.3016 2.06436L25.3004 2.06152L25.0706 2.16ZM30.0306 14.14L30.264 14.0502L30.2616 14.0444L30.0306 14.14ZM25.1506 14.46L25.3904 14.389L25.3884 14.3829L25.1506 14.46ZM24.6706 12.98L24.9084 12.9029L24.8524 12.73H24.6706V12.98ZM21.1306 12.98V12.73H20.9465L20.8919 12.9058L21.1306 12.98ZM20.6706 14.46L20.4319 14.3858L20.4309 14.389L20.6706 14.46ZM23.6906 9.82V10.07H24.0313L23.9291 9.74499L23.6906 9.82ZM22.9106 7.34L23.1491 7.26499L22.9106 6.50674L22.6721 7.26499L22.9106 7.34ZM22.1306 9.82L21.8921 9.74499L21.7899 10.07H22.1306V9.82ZM16.1306 14.75C16.0197 14.75 15.9828 14.7233 15.9732 14.7142C15.9658 14.7071 15.9406 14.6784 15.9406 14.58H15.4406C15.4406 14.7616 15.4888 14.9429 15.628 15.0758C15.7651 15.2067 15.9483 15.25 16.1306 15.25V14.75ZM15.9406 14.58C15.9406 14.5028 15.9629 14.3884 16.024 14.2297L15.5573 14.0503C15.485 14.2383 15.4406 14.4172 15.4406 14.58H15.9406ZM16.0215 14.236L21.0015 2.25596L20.5398 2.06404L15.5598 14.044L16.0215 14.236ZM21.0004 2.25848C21.1134 1.99493 21.2244 1.85 21.3177 1.78218L21.0236 1.37782C20.8235 1.52333 20.6679 1.76506 20.5408 2.06152L21.0004 2.25848ZM21.3206 1.78C21.4231 1.70318 21.5836 1.65 21.8306 1.65V1.15C21.5176 1.15 21.2382 1.21682 21.0206 1.38L21.3206 1.78ZM21.8306 1.65H24.0106V1.15H21.8306V1.65ZM24.0106 1.65C24.2595 1.65 24.4073 1.70394 24.4923 1.77349L24.8089 1.38651C24.6006 1.21606 24.3217 1.15 24.0106 1.15V1.65ZM24.512 1.78801C24.6144 1.8563 24.7297 1.9992 24.8408 2.25848L25.3004 2.06152C25.1715 1.7608 25.0069 1.51703 24.7893 1.37199L24.512 1.78801ZM24.8396 2.25563L29.7996 14.2356L30.2616 14.0444L25.3016 2.06437L24.8396 2.25563ZM29.7973 14.2297C29.8583 14.3884 29.8806 14.5028 29.8806 14.58H30.3806C30.3806 14.4172 30.3363 14.2383 30.264 14.0503L29.7973 14.2297ZM29.8806 14.58C29.8806 14.6784 29.8554 14.7071 29.848 14.7142C29.8384 14.7233 29.8016 14.75 29.6906 14.75V15.25C29.873 15.25 30.0562 15.2067 30.1932 15.0758C30.3325 14.9429 30.3806 14.7616 30.3806 14.58H29.8806ZM29.6906 14.75H25.9306V15.25H29.6906V14.75ZM25.9306 14.75C25.7593 14.75 25.645 14.7128 25.5679 14.6595C25.4932 14.6077 25.4306 14.525 25.3903 14.389L24.9109 14.531C24.9773 14.755 25.0981 14.9423 25.2833 15.0705C25.4663 15.1972 25.6886 15.25 25.9306 15.25V14.75ZM25.3884 14.3829L24.9084 12.9029L24.4328 13.0571L24.9128 14.5371L25.3884 14.3829ZM24.6706 12.73H21.1306V13.23H24.6706V12.73ZM20.8919 12.9058L20.4319 14.3858L20.9094 14.5342L21.3694 13.0542L20.8919 12.9058ZM20.4309 14.389C20.3906 14.525 20.3281 14.6077 20.2533 14.6595C20.1763 14.7128 20.0619 14.75 19.8906 14.75V15.25C20.1327 15.25 20.355 15.1972 20.5379 15.0705C20.7232 14.9423 20.844 14.755 20.9103 14.531L20.4309 14.389ZM19.8906 14.75H16.1306V15.25H19.8906V14.75ZM23.9291 9.74499L23.1491 7.26499L22.6721 7.41501L23.4521 9.89501L23.9291 9.74499ZM22.6721 7.26499L21.8921 9.74499L22.3691 9.89501L23.1491 7.41501L22.6721 7.26499ZM22.1306 10.07H23.6906V9.57H22.1306V10.07ZM30.3897 14.72L30.2064 14.8902L30.2129 14.8968L30.3897 14.72ZM30.3897 1.68L30.2128 1.5031L30.2065 1.50989L30.3897 1.68ZM40.4697 2.6L40.3043 2.78748L40.3072 2.79001L40.4697 2.6ZM41.3497 8.62L41.1261 8.50819L41.1252 8.51003L41.3497 8.62ZM39.8497 10.16L39.7294 9.94086L39.524 10.0536L39.6232 10.2658L39.8497 10.16ZM41.7097 14.14L41.4831 14.2459L41.4861 14.2518L41.7097 14.14ZM41.6297 14.86L41.4651 14.6719L41.4588 14.6773L41.4529 14.6832L41.6297 14.86ZM37.3497 14.92L37.2283 15.1385L37.2421 15.1462L37.2568 15.1521L37.3497 14.92ZM37.0897 14.6L37.3247 14.5145L37.322 14.5076L37.0897 14.6ZM35.6097 10.88L35.842 10.7876L35.7793 10.63H35.6097V10.88ZM34.9297 10.88V10.63H34.6797V10.88H34.9297ZM34.6497 14.72L34.4728 14.5431L34.4665 14.5499L34.6497 14.72ZM36.6897 7.2L36.5229 7.01362L36.518 7.01825L36.6897 7.2ZM36.6897 5.14L36.518 5.32182L36.523 5.32631L36.6897 5.14ZM34.3297 4.8V4.55H34.0797V4.8H34.3297ZM34.3297 7.54H34.0797V7.79H34.3297V7.54ZM31.3297 14.75C30.9142 14.75 30.6832 14.66 30.5665 14.5432L30.2129 14.8968C30.4695 15.1533 30.8652 15.25 31.3297 15.25V14.75ZM30.5729 14.5499C30.4601 14.4284 30.3797 14.2154 30.3797 13.86H29.8797C29.8797 14.278 29.9726 14.6382 30.2065 14.8901L30.5729 14.5499ZM30.3797 13.86V2.54H29.8797V13.86H30.3797ZM30.3797 2.54C30.3797 2.18464 30.4601 1.97158 30.5729 1.85011L30.2065 1.50989C29.9726 1.76175 29.8797 2.12202 29.8797 2.54H30.3797ZM30.5665 1.85678C30.6832 1.74 30.9142 1.65 31.3297 1.65V1.15C30.8652 1.15 30.4695 1.24667 30.2129 1.50322L30.5665 1.85678ZM31.3297 1.65H36.1097V1.15H31.3297V1.65ZM36.1097 1.65C38.0859 1.65 39.465 2.04695 40.3043 2.78746L40.6351 2.41254C39.661 1.55305 38.1335 1.15 36.1097 1.15V1.65ZM40.3072 2.79001C41.1551 3.51503 41.5997 4.62808 41.5997 6.18H42.0997C42.0997 4.53192 41.6242 3.2583 40.6322 2.40999L40.3072 2.79001ZM41.5997 6.18C41.5997 7.112 41.4378 7.88477 41.1261 8.5082L41.5733 8.7318C41.9282 8.0219 42.0997 7.168 42.0997 6.18H41.5997ZM41.1252 8.51003C40.8294 9.11397 40.3674 9.59057 39.7294 9.94086L39.97 10.3791C40.692 9.98276 41.23 9.4327 41.5742 8.72997L41.1252 8.51003ZM39.6232 10.2658L41.4832 14.2458L41.9362 14.0342L40.0762 10.0542L39.6232 10.2658ZM41.4861 14.2518C41.5201 14.3198 41.5397 14.4008 41.5397 14.5H42.0397C42.0397 14.3325 42.0059 14.1735 41.9333 14.0282L41.4861 14.2518ZM41.5397 14.5C41.5397 14.5774 41.5154 14.6278 41.4651 14.6719L41.7943 15.0481C41.9574 14.9055 42.0397 14.7159 42.0397 14.5H41.5397ZM41.4529 14.6832C41.4161 14.72 41.3584 14.75 41.2497 14.75V15.25C41.461 15.25 41.6566 15.1866 41.8065 15.0368L41.4529 14.6832ZM41.2497 14.75H37.8697V15.25H41.2497V14.75ZM37.8697 14.75C37.6742 14.75 37.5356 14.7251 37.4425 14.6879L37.2568 15.1521C37.4304 15.2215 37.6386 15.25 37.8697 15.25V14.75ZM37.4711 14.7015C37.4109 14.668 37.3604 14.6129 37.3246 14.5146L36.8547 14.6854C36.9257 14.8804 37.0484 15.0386 37.2283 15.1385L37.4711 14.7015ZM37.322 14.5076L35.842 10.7876L35.3774 10.9724L36.8574 14.6924L37.322 14.5076ZM35.6097 10.63H34.9297V11.13H35.6097V10.63ZM34.6797 10.88V13.86H35.1797V10.88H34.6797ZM34.6797 13.86C34.6797 14.2111 34.5947 14.4214 34.4729 14.5432L34.8265 14.8968C35.078 14.6452 35.1797 14.2822 35.1797 13.86H34.6797ZM34.4665 14.5499C34.3663 14.6578 34.1438 14.75 33.7097 14.75V15.25C34.1822 15.25 34.5864 15.1556 34.8329 14.8901L34.4665 14.5499ZM33.7097 14.75H31.3297V15.25H33.7097V14.75ZM35.6897 7.79C36.1609 7.79 36.5626 7.66393 36.8613 7.38175L36.518 7.01825C36.3368 7.1894 36.0719 7.29 35.6897 7.29V7.79ZM36.8564 7.38631C37.1788 7.0978 37.3197 6.67951 37.3197 6.18H36.8197C36.8197 6.58716 36.7072 6.84887 36.523 7.01369L36.8564 7.38631ZM37.3197 6.18C37.3197 5.6698 37.1803 5.2435 36.8564 4.95369L36.523 5.32631C36.7057 5.48983 36.8197 5.75686 36.8197 6.18H37.3197ZM36.8613 4.95825C36.5626 4.67607 36.1609 4.55 35.6897 4.55V5.05C36.0719 5.05 36.3368 5.1506 36.518 5.32175L36.8613 4.95825ZM35.6897 4.55H34.3297V5.05H35.6897V4.55ZM34.0797 4.8V7.54H34.5797V4.8H34.0797ZM34.3297 7.79H35.6897V7.29H34.3297V7.79ZM44.3845 14.92L44.3254 15.1629L44.3254 15.1629L44.3845 14.92ZM41.8645 13.86L42.009 13.656L42.0079 13.6552L41.8645 13.86ZM41.6045 12.94L41.8095 13.0835L41.8154 13.0744L41.6045 12.94ZM42.7645 11.12L42.5588 10.9776L42.5537 10.9856L42.7645 11.12ZM43.5045 11L43.3703 11.211L43.3742 11.2133L43.5045 11ZM45.1445 11.7L45.0765 11.9407L45.0827 11.9422L45.1445 11.7ZM48.0245 11.74L47.8977 11.5244L47.892 11.528L48.0245 11.74ZM46.4045 9.68L46.4951 9.447L46.4946 9.44678L46.4045 9.68ZM43.2245 7.92L43.0613 8.10936L43.0632 8.11097L43.2245 7.92ZM43.5045 2.16L43.6509 2.36267L43.6514 2.3623L43.5045 2.16ZM50.3445 1.4L50.2839 1.64254L50.2848 1.64277L50.3445 1.4ZM52.4645 2.34L52.3196 2.54374L52.3212 2.54481L52.4645 2.34ZM52.7245 3.26L52.5195 3.1165L52.5137 3.12563L52.7245 3.26ZM51.5645 5.08L51.7748 5.21519L51.7754 5.21437L51.5645 5.08ZM50.8245 5.2L50.6858 5.40815L50.6935 5.41291L50.8245 5.2ZM49.6845 4.68L49.6054 4.91726L49.612 4.91926L49.6845 4.68ZM47.2045 4.66L47.0831 4.44146L47.0831 4.44146L47.2045 4.66ZM47.0845 5.9L46.9076 6.07692L46.915 6.0837L47.0845 5.9ZM47.7245 6.32L47.6174 6.54615L47.6275 6.55041L47.7245 6.32ZM49.0445 6.86L48.9508 7.09178L48.9517 7.09212L49.0445 6.86ZM51.4045 8.02L51.2681 8.22953L51.2716 8.23172L51.4045 8.02ZM52.7045 9.34L52.4868 9.46284L52.4882 9.46526L52.7045 9.34ZM51.7845 14.2L51.9432 14.3932L51.9435 14.393L51.7845 14.2ZM47.7645 15.05C46.5685 15.05 45.462 14.9251 44.4437 14.6771L44.3254 15.1629C45.3871 15.4215 46.5339 15.55 47.7645 15.55V15.05ZM44.4437 14.6771C43.4239 14.4287 42.6158 14.0858 42.009 13.656L41.72 14.064C42.3933 14.5409 43.2652 14.9046 44.3254 15.1629L44.4437 14.6771ZM42.0079 13.6552C41.7524 13.4764 41.7145 13.3617 41.7145 13.32H41.2145C41.2145 13.6249 41.4433 13.8703 41.7212 14.0648L42.0079 13.6552ZM41.7145 13.32C41.7145 13.2667 41.7352 13.1893 41.8093 13.0834L41.3997 12.7966C41.2872 12.9573 41.2145 13.1333 41.2145 13.32H41.7145ZM41.8154 13.0744L42.9754 11.2544L42.5537 10.9856L41.3937 12.8056L41.8154 13.0744ZM42.9701 11.2623C43.0202 11.1899 43.0614 11.149 43.0909 11.1277C43.1184 11.1078 43.1283 11.11 43.1245 11.11V10.61C42.8762 10.61 42.691 10.787 42.559 10.9777L42.9701 11.2623ZM43.1245 11.11C43.1624 11.11 43.2409 11.1286 43.3703 11.2109L43.6388 10.7891C43.4748 10.6847 43.3 10.61 43.1245 10.61V11.11ZM43.3742 11.2133C43.876 11.52 44.4441 11.7619 45.0765 11.9406L45.2125 11.4594C44.6183 11.2915 44.0931 11.0667 43.6349 10.7867L43.3742 11.2133ZM45.0827 11.9422C45.7275 12.1069 46.355 12.19 46.9645 12.19V11.69C46.4007 11.69 45.8149 11.6131 45.2064 11.4578L45.0827 11.9422ZM46.9645 12.19C47.4674 12.19 47.8811 12.1244 48.157 11.952L47.892 11.528C47.7413 11.6222 47.4484 11.69 46.9645 11.69V12.19ZM48.1513 11.9555C48.4602 11.7738 48.6145 11.4816 48.6145 11.12H48.1145C48.1145 11.3184 48.0422 11.4395 47.8978 11.5245L48.1513 11.9555ZM48.6145 11.12C48.6145 10.7152 48.4128 10.3944 48.0588 10.1691L47.7903 10.5909C48.0229 10.7389 48.1145 10.9115 48.1145 11.12H48.6145ZM48.0588 10.1691C47.7431 9.96822 47.2165 9.72754 46.4951 9.447L46.3139 9.913C47.0325 10.1925 47.5193 10.4184 47.7903 10.5909L48.0588 10.1691ZM46.4946 9.44678C45.1637 8.9329 44.131 8.35854 43.3859 7.72903L43.0632 8.11097C43.8647 8.78812 44.952 9.3871 46.3145 9.91322L46.4946 9.44678ZM43.3878 7.73065C42.6738 7.11516 42.3145 6.30644 42.3145 5.28H41.8145C41.8145 6.44022 42.2286 7.39151 43.0613 8.10935L43.3878 7.73065ZM42.3145 5.28C42.3145 3.95795 42.7677 3.00053 43.6509 2.36267L43.3582 1.95733C42.3213 2.70614 41.8145 3.82871 41.8145 5.28H42.3145ZM43.6514 2.3623C44.569 1.69612 45.8185 1.35 47.4245 1.35V0.849999C45.7506 0.849999 44.3867 1.21055 43.3577 1.9577L43.6514 2.3623ZM47.4245 1.35C48.5581 1.35 49.5097 1.449 50.2839 1.64254L50.4052 1.15746C49.5793 0.951002 48.5843 0.849999 47.4245 0.849999V1.35ZM50.2848 1.64277C51.0717 1.83627 51.7486 2.13767 52.3197 2.54374L52.6094 2.13626C51.9804 1.68899 51.244 1.36373 50.4042 1.15723L50.2848 1.64277ZM52.3212 2.54481C52.5766 2.72362 52.6145 2.83826 52.6145 2.88H53.1145C53.1145 2.57507 52.8858 2.32971 52.6079 2.13519L52.3212 2.54481ZM52.6145 2.88C52.6145 2.93332 52.5939 3.01066 52.5197 3.11663L52.9293 3.40337C53.0418 3.24267 53.1145 3.06667 53.1145 2.88H52.6145ZM52.5137 3.12563L51.3537 4.94563L51.7754 5.21437L52.9354 3.39437L52.5137 3.12563ZM51.3542 4.94481C51.3031 5.02429 51.261 5.06936 51.231 5.09266C51.203 5.11444 51.1956 5.11 51.2045 5.11V5.61C51.4616 5.61 51.6467 5.4145 51.7748 5.21519L51.3542 4.94481ZM51.2045 5.11C51.2136 5.11 51.1981 5.11128 51.1465 5.08959C51.0991 5.06962 51.036 5.03658 50.9556 4.98709L50.6935 5.41291C50.7864 5.47008 50.8733 5.51705 50.9525 5.55041C51.0277 5.58205 51.1155 5.61 51.2045 5.61V5.11ZM50.9632 4.99199C50.6193 4.7627 50.2161 4.57984 49.757 4.44074L49.612 4.91926C50.033 5.04682 50.3898 5.21063 50.6859 5.40801L50.9632 4.99199ZM49.7636 4.44283C49.2959 4.28692 48.7956 4.21 48.2645 4.21V4.71C48.7468 4.71 49.1932 4.77975 49.6055 4.91717L49.7636 4.44283ZM48.2645 4.21C47.7814 4.21 47.3778 4.27774 47.0831 4.44146L47.3259 4.87854C47.5112 4.77559 47.8143 4.71 48.2645 4.71V4.21ZM47.0831 4.44146C46.9278 4.52777 46.802 4.64571 46.7166 4.79743C46.6318 4.9483 46.5945 5.11891 46.5945 5.3H47.0945C47.0945 5.18776 47.1173 5.10503 47.1524 5.04256C47.1871 4.98095 47.2413 4.92556 47.3259 4.87854L47.0831 4.44146ZM46.5945 5.3C46.5945 5.60184 46.6978 5.86683 46.9078 6.07678L47.2613 5.72322C47.1513 5.61317 47.0945 5.47816 47.0945 5.3H46.5945ZM46.915 6.0837C47.11 6.26374 47.3455 6.41708 47.6175 6.54593L47.8316 6.09407C47.5969 5.98292 47.4057 5.85626 47.2541 5.7163L46.915 6.0837ZM47.6275 6.55041C47.8827 6.65785 48.3242 6.83845 48.9508 7.09178L49.1382 6.62822C48.5115 6.37488 48.073 6.19548 47.8215 6.08959L47.6275 6.55041ZM48.9517 7.09212C49.9441 7.48907 50.714 7.86869 51.2681 8.2295L51.5409 7.8105C50.9484 7.42464 50.145 7.03093 49.1374 6.62788L48.9517 7.09212ZM51.2716 8.23172C51.8145 8.57261 52.2165 8.98367 52.4868 9.46283L52.9223 9.21717C52.6059 8.65633 52.1413 8.18739 51.5375 7.80828L51.2716 8.23172ZM52.4882 9.46526C52.7532 9.92296 52.8945 10.5227 52.8945 11.28H53.3945C53.3945 10.4639 53.2426 9.77037 52.9209 9.21474L52.4882 9.46526ZM52.8945 11.28C52.8945 12.4072 52.4732 13.309 51.6256 14.007L51.9435 14.393C52.9092 13.5976 53.3945 12.5528 53.3945 11.28H52.8945ZM51.6259 14.0068C50.796 14.688 49.5233 15.05 47.7645 15.05V15.55C49.5791 15.55 50.9864 15.1786 51.9432 14.3932L51.6259 14.0068ZM1.96 30.72L1.77668 30.8902L1.78322 30.8968L1.96 30.72ZM1.96 17.68L1.7831 17.5031L1.7768 17.5099L1.96 17.68ZM12.04 18.6L11.8746 18.7875L11.8775 18.79L12.04 18.6ZM12.04 25.76L11.8775 25.57L11.8762 25.5712L12.04 25.76ZM6.5 26.94V26.69H6.25V26.94H6.5ZM6.22 30.72L6.0431 30.5431L6.0368 30.5499L6.22 30.72ZM8.26 23.2L8.09324 23.0136L8.08834 23.0182L8.26 23.2ZM8.26 21.14L8.08828 21.3218L8.0933 21.3263L8.26 21.14ZM5.9 20.8V20.55H5.65V20.8H5.9ZM5.9 23.54H5.65V23.79H5.9V23.54ZM2.9 30.75C2.4845 30.75 2.25356 30.66 2.13678 30.5432L1.78322 30.8968C2.03978 31.1533 2.4355 31.25 2.9 31.25V30.75ZM2.1432 30.5499C2.03041 30.4284 1.95 30.2154 1.95 29.86H1.45C1.45 30.278 1.54293 30.6382 1.7768 30.8901L2.1432 30.5499ZM1.95 29.86V18.54H1.45V29.86H1.95ZM1.95 18.54C1.95 18.1846 2.03041 17.9716 2.1432 17.8501L1.7768 17.5099C1.54293 17.7618 1.45 18.122 1.45 18.54H1.95ZM2.13678 17.8568C2.25356 17.74 2.4845 17.65 2.9 17.65V17.15C2.4355 17.15 2.03978 17.2467 1.78322 17.5032L2.13678 17.8568ZM2.9 17.65H7.68V17.15H2.9V17.65ZM7.68 17.65C9.65621 17.65 11.0353 18.0469 11.8746 18.7875L12.2054 18.4125C11.2313 17.5531 9.70379 17.15 7.68 17.15V17.65ZM11.8775 18.79C12.7254 19.515 13.17 20.6281 13.17 22.18H13.67C13.67 20.5319 13.1946 19.2583 12.2025 18.41L11.8775 18.79ZM13.17 22.18C13.17 23.7319 12.7254 24.845 11.8775 25.57L12.2025 25.95C13.1946 25.1017 13.67 23.8281 13.67 22.18H13.17ZM11.8762 25.5712C11.0366 26.2996 9.66312 26.69 7.7 26.69V27.19C9.71021 27.19 11.2301 26.7937 12.2038 25.9488L11.8762 25.5712ZM7.7 26.69H6.5V27.19H7.7V26.69ZM6.25 26.94V29.86H6.75V26.94H6.25ZM6.25 29.86C6.25 30.2111 6.16501 30.4214 6.04322 30.5432L6.39678 30.8968C6.64832 30.6452 6.75 30.2822 6.75 29.86H6.25ZM6.0368 30.5499C5.93662 30.6578 5.71413 30.75 5.28 30.75V31.25C5.75253 31.25 6.15672 31.1556 6.4032 30.8901L6.0368 30.5499ZM5.28 30.75H2.9V31.25H5.28V30.75ZM7.26 23.79C7.73117 23.79 8.13288 23.6639 8.43166 23.3818L8.08834 23.0182C7.90712 23.1894 7.64216 23.29 7.26 23.29V23.79ZM8.4267 23.3863C8.74916 23.0978 8.89 22.6795 8.89 22.18H8.39C8.39 22.5872 8.27751 22.8489 8.0933 23.0137L8.4267 23.3863ZM8.89 22.18C8.89 21.6698 8.75061 21.2435 8.4267 20.9537L8.0933 21.3263C8.27606 21.4898 8.39 21.7569 8.39 22.18H8.89ZM8.43166 20.9582C8.13288 20.6761 7.73117 20.55 7.26 20.55V21.05C7.64216 21.05 7.90712 21.1506 8.08834 21.3218L8.43166 20.9582ZM7.26 20.55H5.9V21.05H7.26V20.55ZM5.65 20.8V23.54H6.15V20.8H5.65ZM5.9 23.79H7.26V23.29H5.9V23.79ZM13.2842 30.72L13.1009 30.8902L13.1074 30.8968L13.2842 30.72ZM13.2842 17.68L13.1073 17.5031L13.101 17.5099L13.2842 17.68ZM23.3642 17.68L23.1676 17.8345L23.1738 17.8423L23.1805 17.8496L23.3642 17.68ZM23.3642 20.54L23.1744 20.3773L23.1734 20.3785L23.3642 20.54ZM17.8242 20.8V20.55H17.5742V20.8H17.8242ZM17.8242 22.52H17.5742V22.77H17.8242V22.52ZM21.5642 22.8L21.3676 22.9545L21.3738 22.9623L21.3805 22.9696L21.5642 22.8ZM21.5642 25.62L21.3744 25.4573L21.3734 25.4585L21.5642 25.62ZM17.8242 25.88V25.63H17.5742V25.88H17.8242ZM17.8242 27.6H17.5742V27.85H17.8242V27.6ZM23.3442 27.88L23.1476 28.0345L23.1538 28.0423L23.1605 28.0496L23.3442 27.88ZM23.3442 30.74L23.1544 30.5773L23.1534 30.5785L23.3442 30.74ZM14.2242 30.75C13.8087 30.75 13.5778 30.66 13.461 30.5432L13.1074 30.8968C13.364 31.1533 13.7597 31.25 14.2242 31.25V30.75ZM13.4674 30.5499C13.3546 30.4284 13.2742 30.2154 13.2742 29.86H12.7742C12.7742 30.278 12.8671 30.6382 13.101 30.8901L13.4674 30.5499ZM13.2742 29.86V18.54H12.7742V29.86H13.2742ZM13.2742 18.54C13.2742 18.1846 13.3546 17.9716 13.4674 17.8501L13.101 17.5099C12.8671 17.7618 12.7742 18.122 12.7742 18.54H13.2742ZM13.461 17.8568C13.5778 17.74 13.8087 17.65 14.2242 17.65V17.15C13.7597 17.15 13.364 17.2467 13.1074 17.5032L13.461 17.8568ZM14.2242 17.65H22.5042V17.15H14.2242V17.65ZM22.5042 17.65C22.9122 17.65 23.0953 17.7424 23.1676 17.8345L23.5608 17.5255C23.3398 17.2442 22.9495 17.15 22.5042 17.15V17.65ZM23.1805 17.8496C23.2767 17.9537 23.3542 18.1623 23.3542 18.54H23.8542C23.8542 18.1177 23.7718 17.7529 23.5479 17.5104L23.1805 17.8496ZM23.3542 18.54V19.66H23.8542V18.54H23.3542ZM23.3542 19.66C23.3542 20.0353 23.2776 20.2569 23.1744 20.3773L23.554 20.7027C23.7708 20.4498 23.8542 20.0847 23.8542 19.66H23.3542ZM23.1734 20.3785C23.1024 20.4624 22.9167 20.55 22.5042 20.55V21.05C22.9451 21.05 23.3327 20.9643 23.5551 20.7015L23.1734 20.3785ZM22.5042 20.55H17.8242V21.05H22.5042V20.55ZM17.5742 20.8V22.52H18.0742V20.8H17.5742ZM17.8242 22.77H20.7042V22.27H17.8242V22.77ZM20.7042 22.77C21.1122 22.77 21.2953 22.8624 21.3676 22.9545L21.7608 22.6455C21.5398 22.3642 21.1495 22.27 20.7042 22.27V22.77ZM21.3805 22.9696C21.4767 23.0737 21.5542 23.2823 21.5542 23.66H22.0542C22.0542 23.2377 21.9718 22.8729 21.7479 22.6304L21.3805 22.9696ZM21.5542 23.66V24.74H22.0542V23.66H21.5542ZM21.5542 24.74C21.5542 25.1153 21.4776 25.3369 21.3744 25.4573L21.754 25.7827C21.9708 25.5298 22.0542 25.1647 22.0542 24.74H21.5542ZM21.3734 25.4585C21.3024 25.5424 21.1167 25.63 20.7042 25.63V26.13C21.1451 26.13 21.5327 26.0443 21.7551 25.7815L21.3734 25.4585ZM20.7042 25.63H17.8242V26.13H20.7042V25.63ZM17.5742 25.88V27.6H18.0742V25.88H17.5742ZM17.8242 27.85H22.4842V27.35H17.8242V27.85ZM22.4842 27.85C22.8922 27.85 23.0753 27.9424 23.1476 28.0345L23.5408 27.7255C23.3198 27.4442 22.9295 27.35 22.4842 27.35V27.85ZM23.1605 28.0496C23.2567 28.1537 23.3342 28.3623 23.3342 28.74H23.8342C23.8342 28.3177 23.7518 27.9529 23.5279 27.7104L23.1605 28.0496ZM23.3342 28.74V29.86H23.8342V28.74H23.3342ZM23.3342 29.86C23.3342 30.2353 23.2576 30.4569 23.1544 30.5773L23.534 30.9027C23.7508 30.6498 23.8342 30.2847 23.8342 29.86H23.3342ZM23.1534 30.5785C23.0824 30.6624 22.8967 30.75 22.4842 30.75V31.25C22.9251 31.25 23.3127 31.1643 23.5351 30.9015L23.1534 30.5785ZM22.4842 30.75H14.2242V31.25H22.4842V30.75ZM23.7686 30.72L23.5853 30.8902L23.5918 30.8968L23.7686 30.72ZM23.7686 17.68L23.5917 17.5031L23.5854 17.5099L23.7686 17.68ZM34.5486 29.28L34.3769 29.0983L34.3759 29.0993L34.5486 29.28ZM31.0886 26.86L30.8814 26.72L30.8789 26.724L31.0886 26.86ZM31.0886 21.54L30.8788 21.6761L30.8814 21.68L31.0886 21.54ZM28.3086 20.8V20.55H28.0586V20.8H28.3086ZM28.3086 27.6H28.0586V27.85H28.3086V27.6ZM24.7086 30.75C24.2931 30.75 24.0621 30.66 23.9454 30.5432L23.5918 30.8968C23.8484 31.1533 24.2441 31.25 24.7086 31.25V30.75ZM23.9518 30.5499C23.839 30.4284 23.7586 30.2154 23.7586 29.86H23.2586C23.2586 30.278 23.3515 30.6382 23.5854 30.8901L23.9518 30.5499ZM23.7586 29.86V18.54H23.2586V29.86H23.7586ZM23.7586 18.54C23.7586 18.1846 23.839 17.9716 23.9518 17.8501L23.5854 17.5099C23.3515 17.7618 23.2586 18.122 23.2586 18.54H23.7586ZM23.9454 17.8568C24.0621 17.74 24.2931 17.65 24.7086 17.65V17.15C24.2441 17.15 23.8484 17.2467 23.5918 17.5032L23.9454 17.8568ZM24.7086 17.65H29.3086V17.15H24.7086V17.65ZM29.3086 17.65C31.6257 17.65 33.3172 18.2081 34.4302 19.2801C35.5414 20.3504 36.1186 21.9743 36.1186 24.2H36.6186C36.6186 21.8924 36.0191 20.1163 34.777 18.9199C33.5367 17.7253 31.6982 17.15 29.3086 17.15V17.65ZM36.1186 24.2C36.1186 26.3957 35.5249 28.0134 34.3769 29.0983L34.7203 29.4617C35.999 28.2533 36.6186 26.4843 36.6186 24.2H36.1186ZM34.3759 29.0993C33.2377 30.1868 31.5625 30.75 29.3086 30.75V31.25C31.6414 31.25 33.4595 30.6665 34.7213 29.4607L34.3759 29.0993ZM29.3086 30.75H24.7086V31.25H29.3086V30.75ZM29.4886 27.85C30.2941 27.85 30.9197 27.5797 31.2983 26.996L30.8789 26.724C30.6175 27.1269 30.1765 27.35 29.4886 27.35V27.85ZM31.2957 27C31.6747 26.439 31.8386 25.4841 31.8386 24.2H31.3386C31.3386 25.4759 31.1691 26.2943 30.8814 26.72L31.2957 27ZM31.8386 24.2C31.8386 22.9159 31.6747 21.9609 31.2957 21.4L30.8814 21.68C31.1691 22.1057 31.3386 22.9241 31.3386 24.2H31.8386ZM31.2983 21.404C30.9197 20.8203 30.2941 20.55 29.4886 20.55V21.05C30.1765 21.05 30.6175 21.2731 30.8789 21.676L31.2983 21.404ZM29.4886 20.55H28.3086V21.05H29.4886V20.55ZM28.0586 20.8V27.6H28.5586V20.8H28.0586ZM28.3086 27.85H29.4886V27.35H28.3086V27.85ZM36.6358 30.72L36.4525 30.8902L36.459 30.8968L36.6358 30.72ZM36.6358 17.68L36.4589 17.5031L36.4526 17.5099L36.6358 17.68ZM40.8958 17.68L40.7126 17.8501L40.7189 17.8569L40.7257 17.8632L40.8958 17.68ZM40.8958 30.72L40.7189 30.5431L40.7126 30.5499L40.8958 30.72ZM37.5758 30.75C37.1603 30.75 36.9293 30.66 36.8126 30.5432L36.459 30.8968C36.7156 31.1533 37.1113 31.25 37.5758 31.25V30.75ZM36.819 30.5499C36.7062 30.4284 36.6258 30.2154 36.6258 29.86H36.1258C36.1258 30.278 36.2187 30.6382 36.4526 30.8901L36.819 30.5499ZM36.6258 29.86V18.54H36.1258V29.86H36.6258ZM36.6258 18.54C36.6258 18.1846 36.7062 17.9716 36.819 17.8501L36.4526 17.5099C36.2187 17.7618 36.1258 18.122 36.1258 18.54H36.6258ZM36.8126 17.8568C36.9293 17.74 37.1603 17.65 37.5758 17.65V17.15C37.1113 17.15 36.7156 17.2467 36.459 17.5032L36.8126 17.8568ZM37.5758 17.65H39.9558V17.15H37.5758V17.65ZM39.9558 17.65C40.3899 17.65 40.6124 17.7422 40.7126 17.8501L41.079 17.5099C40.8325 17.2444 40.4283 17.15 39.9558 17.15V17.65ZM40.7257 17.8632C40.8386 17.968 40.9258 18.1706 40.9258 18.54H41.4258C41.4258 18.1094 41.3263 17.7386 41.0659 17.4968L40.7257 17.8632ZM40.9258 18.54V29.86H41.4258V18.54H40.9258ZM40.9258 29.86C40.9258 30.2111 40.8408 30.4214 40.719 30.5432L41.0726 30.8968C41.3241 30.6452 41.4258 30.2822 41.4258 29.86H40.9258ZM40.7126 30.5499C40.6124 30.6578 40.3899 30.75 39.9558 30.75V31.25C40.4283 31.25 40.8325 31.1556 41.079 30.8901L40.7126 30.5499ZM39.9558 30.75H37.5758V31.25H39.9558V30.75ZM41.2672 30.14L41.0363 30.044L41.0339 30.0503L41.2672 30.14ZM46.2472 18.16L46.0174 18.0615L46.0163 18.064L46.2472 18.16ZM46.6472 17.58L46.7942 17.7822L46.7972 17.78L46.6472 17.58ZM50.1272 17.58L49.9689 17.7735L49.9783 17.7812L49.9885 17.788L50.1272 17.58ZM50.5472 18.16L50.7782 18.0644L50.777 18.0615L50.5472 18.16ZM55.5072 30.14L55.7406 30.0502L55.7382 30.0444L55.5072 30.14ZM50.6272 30.46L50.867 30.389L50.865 30.3829L50.6272 30.46ZM50.1472 28.98L50.385 28.9029L50.3289 28.73H50.1472V28.98ZM46.6072 28.98V28.73H46.4231L46.3685 28.9058L46.6072 28.98ZM46.1472 30.46L45.9084 30.3858L45.9075 30.389L46.1472 30.46ZM49.1672 25.82V26.07H49.5079L49.4057 25.745L49.1672 25.82ZM48.3872 23.34L48.6257 23.265L48.3872 22.5067L48.1487 23.265L48.3872 23.34ZM47.6072 25.82L47.3687 25.745L47.2665 26.07H47.6072V25.82ZM41.6072 30.75C41.4962 30.75 41.4594 30.7233 41.4498 30.7142C41.4424 30.7071 41.4172 30.6784 41.4172 30.58H40.9172C40.9172 30.7616 40.9653 30.9429 41.1046 31.0758C41.2416 31.2067 41.4248 31.25 41.6072 31.25V30.75ZM41.4172 30.58C41.4172 30.5028 41.4395 30.3884 41.5005 30.2297L41.0339 30.0503C40.9615 30.2383 40.9172 30.4172 40.9172 30.58H41.4172ZM41.498 30.236L46.478 18.256L46.0163 18.064L41.0363 30.044L41.498 30.236ZM46.477 18.2585C46.5899 17.9949 46.701 17.85 46.7942 17.7822L46.5001 17.3778C46.3001 17.5233 46.1445 17.7651 46.0174 18.0615L46.477 18.2585ZM46.7972 17.78C46.8996 17.7032 47.0602 17.65 47.3072 17.65V17.15C46.9942 17.15 46.7148 17.2168 46.4972 17.38L46.7972 17.78ZM47.3072 17.65H49.4872V17.15H47.3072V17.65ZM49.4872 17.65C49.7361 17.65 49.8839 17.7039 49.9689 17.7735L50.2855 17.3865C50.0772 17.2161 49.7983 17.15 49.4872 17.15V17.65ZM49.9885 17.788C50.091 17.8563 50.2063 17.9992 50.3174 18.2585L50.777 18.0615C50.6481 17.7608 50.4834 17.517 50.2659 17.372L49.9885 17.788ZM50.3162 18.2556L55.2762 30.2356L55.7382 30.0444L50.7782 18.0644L50.3162 18.2556ZM55.2739 30.2297C55.3349 30.3884 55.3572 30.5028 55.3572 30.58H55.8572C55.8572 30.4172 55.8128 30.2383 55.7405 30.0503L55.2739 30.2297ZM55.3572 30.58C55.3572 30.6784 55.332 30.7071 55.3246 30.7142C55.315 30.7233 55.2781 30.75 55.1672 30.75V31.25C55.3496 31.25 55.5327 31.2067 55.6698 31.0758C55.809 30.9429 55.8572 30.7616 55.8572 30.58H55.3572ZM55.1672 30.75H51.4072V31.25H55.1672V30.75ZM51.4072 30.75C51.2359 30.75 51.1215 30.7128 51.0445 30.6595C50.9697 30.6077 50.9072 30.525 50.8669 30.389L50.3875 30.531C50.4539 30.755 50.5747 30.9423 50.7599 31.0705C50.9428 31.1972 51.1651 31.25 51.4072 31.25V30.75ZM50.865 30.3829L50.385 28.9029L49.9094 29.0571L50.3894 30.5371L50.865 30.3829ZM50.1472 28.73H46.6072V29.23H50.1472V28.73ZM46.3685 28.9058L45.9085 30.3858L46.3859 30.5342L46.8459 29.0542L46.3685 28.9058ZM45.9075 30.389C45.8672 30.525 45.8047 30.6077 45.7299 30.6595C45.6528 30.7128 45.5385 30.75 45.3672 30.75V31.25C45.6092 31.25 45.8315 31.1972 46.0145 31.0705C46.1997 30.9423 46.3205 30.755 46.3869 30.531L45.9075 30.389ZM45.3672 30.75H41.6072V31.25H45.3672V30.75ZM49.4057 25.745L48.6257 23.265L48.1487 23.415L48.9287 25.895L49.4057 25.745ZM48.1487 23.265L47.3687 25.745L47.8457 25.895L48.6257 23.415L48.1487 23.265ZM47.6072 26.07H49.1672V25.57H47.6072V26.07Z" fill="#FFF615"/>
</g>
<defs>
<filter id="filter0_d_10_61" x="0.299988" y="0.0999756" width="56.3072" height="31.9" filterUnits="userSpaceOnUse" color-interpolation-filters="sRGB">
<feFlood flood-opacity="0" result="BackgroundImageFix"/>
<feColorMatrix in="SourceAlpha" type="matrix" values="0 0 0 0 0 0 0 0 0 0 0 0 0 0 0 0 0 0 127 0" result="hardAlpha"/>
<feOffset/>
<feGaussianBlur stdDeviation="0.5"/>
<feComposite in2="hardAlpha" operator="out"/>
<feColorMatrix type="matrix" values="0 0 0 0 0 0 0 0 0 0 0 0 0 0 0 0 0 0 1 0"/>
<feBlend mode="normal" in2="BackgroundImageFix" result="effect1_dropShadow_10_61"/>
<feBlend mode="normal" in="SourceGraphic" in2="effect1_dropShadow_10_61" result="shape"/>
</filter>
</defs>
</svg>
