<svg width="32" height="16" viewBox="0 0 32 16" fill="none" xmlns="http://www.w3.org/2000/svg">
<g filter="url(#filter0_d_14_206)">
<path d="M5.4 15C5.09333 15 4.85333 14.9467 4.68 14.84C4.52 14.72 4.40667 14.52 4.34 14.24L1.34 2.06L1.3 1.82C1.3 1.54 1.5 1.4 1.9 1.4H5.3C5.55333 1.4 5.74 1.44667 5.86 1.54C5.98 1.62 6.05333 1.75333 6.08 1.94L6.86 6.7L8.06 3.06C8.14 2.82 8.24 2.66 8.36 2.58C8.49333 2.48667 8.69333 2.44 8.96 2.44H10.52C10.7867 2.44 10.98 2.48667 11.1 2.58C11.2333 2.66 11.34 2.82 11.42 3.06L12.62 6.7L13.4 1.94C13.4267 1.75333 13.5 1.62 13.62 1.54C13.74 1.44667 13.9267 1.4 14.18 1.4H17.6C18 1.4 18.2 1.54 18.2 1.82L18.16 2.06L15.14 14.24C15.0733 14.52 14.9533 14.72 14.78 14.84C14.62 14.9467 14.3867 15 14.08 15H11.9C11.6067 15 11.3733 14.9467 11.2 14.84C11.04 14.72 10.92 14.52 10.84 14.24L9.74 10.36L8.64 14.24C8.56 14.52 8.43333 14.72 8.26 14.84C8.1 14.9467 7.87333 15 7.58 15H5.4ZM20 15C19.56 15 19.2467 14.9067 19.06 14.72C18.8867 14.5333 18.8 14.2467 18.8 13.86V2.54C18.8 2.15333 18.8867 1.86667 19.06 1.68C19.2467 1.49333 19.56 1.4 20 1.4H24.78C26.78 1.4 28.2333 1.8 29.14 2.6C30.06 3.38667 30.52 4.58 30.52 6.18C30.52 7.78 30.06 8.97333 29.14 9.76C28.2333 10.5467 26.7867 10.94 24.8 10.94H23.6V13.86C23.6 14.2467 23.5067 14.5333 23.32 14.72C23.1467 14.9067 22.8333 15 22.38 15H20ZM24.36 7.54C24.7867 7.54 25.12 7.42667 25.36 7.2C25.6133 6.97333 25.74 6.63333 25.74 6.18C25.74 5.71333 25.6133 5.36667 25.36 5.14C25.12 4.91333 24.7867 4.8 24.36 4.8H23V7.54H24.36Z" fill="#0E0351"/>
<path d="M4.68 14.84L4.53 15.04L4.53919 15.0469L4.54898 15.0529L4.68 14.84ZM4.34 14.24L4.58321 14.1821L4.58275 14.1802L4.34 14.24ZM1.34 2.06L1.0934 2.1011L1.09497 2.11052L1.09725 2.11979L1.34 2.06ZM1.3 1.82H1.05V1.84069L1.0534 1.8611L1.3 1.82ZM5.86 1.54L5.70652 1.73734L5.71373 1.74295L5.72133 1.74801L5.86 1.54ZM6.08 1.94L5.83246 1.97536L5.83329 1.98043L6.08 1.94ZM6.86 6.7L6.61329 6.74043L7.09743 6.77827L6.86 6.7ZM8.06 3.06L7.82283 2.98094L7.82257 2.98173L8.06 3.06ZM8.36 2.58L8.49871 2.78806L8.50337 2.78481L8.36 2.58ZM11.1 2.58L10.9465 2.77734L10.9584 2.78661L10.9714 2.79437L11.1 2.58ZM11.42 3.06L11.6574 2.98173L11.6572 2.98094L11.42 3.06ZM12.62 6.7L12.3826 6.77827L12.8667 6.74043L12.62 6.7ZM13.4 1.94L13.6468 1.98043L13.6475 1.97535L13.4 1.94ZM13.62 1.54L13.7587 1.74801L13.7663 1.74295L13.7735 1.73734L13.62 1.54ZM18.2 1.82L18.4466 1.8611L18.45 1.84069V1.82H18.2ZM18.16 2.06L18.4027 2.12016L18.405 2.11071L18.4066 2.1011L18.16 2.06ZM15.14 14.24L14.8973 14.1798L14.8968 14.1821L15.14 14.24ZM14.78 14.84L14.9187 15.048L14.9223 15.0455L14.78 14.84ZM11.2 14.84L11.05 15.04L11.0592 15.0469L11.069 15.0529L11.2 14.84ZM10.84 14.24L10.5995 14.3082L10.5996 14.3087L10.84 14.24ZM9.74 10.36L9.98052 10.2918L9.74 9.44343L9.49948 10.2918L9.74 10.36ZM8.64 14.24L8.88038 14.3087L8.88052 14.3082L8.64 14.24ZM8.26 14.84L8.3987 15.048L8.4023 15.0455L8.26 14.84ZM5.4 14.75C5.11781 14.75 4.9298 14.7002 4.81102 14.6271L4.54898 15.0529C4.77686 15.1932 5.06886 15.25 5.4 15.25V14.75ZM4.83 14.64C4.73346 14.5676 4.64216 14.4297 4.5832 14.1821L4.0968 14.2979C4.17118 14.6103 4.30654 14.8724 4.53 15.04L4.83 14.64ZM4.58275 14.1802L1.58275 2.00021L1.09725 2.11979L4.09726 14.2998L4.58275 14.1802ZM1.5866 2.0189L1.5466 1.7789L1.0534 1.8611L1.0934 2.1011L1.5866 2.0189ZM1.55 1.82C1.55 1.74774 1.57079 1.72561 1.59337 1.70981C1.6322 1.68262 1.7215 1.65 1.9 1.65V1.15C1.6785 1.15 1.4678 1.18737 1.30663 1.30019C1.12921 1.42439 1.05 1.61226 1.05 1.82H1.55ZM1.9 1.65H5.3V1.15H1.9V1.65ZM5.3 1.65C5.5316 1.65 5.6512 1.69432 5.70652 1.73734L6.01349 1.34266C5.8288 1.19902 5.57506 1.15 5.3 1.15V1.65ZM5.72133 1.74801C5.76528 1.77732 5.81263 1.83617 5.83251 1.97535L6.32749 1.90464C6.29404 1.67049 6.19472 1.46268 5.99868 1.33199L5.72133 1.74801ZM5.83329 1.98043L6.61329 6.74043L7.10671 6.65957L6.32671 1.89957L5.83329 1.98043ZM7.09743 6.77827L8.29743 3.13827L7.82257 2.98173L6.62257 6.62173L7.09743 6.77827ZM8.29717 3.13906C8.37144 2.91625 8.44861 2.82139 8.49868 2.78801L8.22132 2.37199C8.03139 2.49861 7.90856 2.72374 7.82283 2.98094L8.29717 3.13906ZM8.50337 2.78481C8.57553 2.73429 8.71483 2.69 8.96 2.69V2.19C8.67183 2.19 8.41114 2.23904 8.21664 2.37519L8.50337 2.78481ZM8.96 2.69H10.52V2.19H8.96V2.69ZM10.52 2.69C10.7685 2.69 10.8929 2.73561 10.9465 2.77734L11.2535 2.38266C11.0671 2.23772 10.8048 2.19 10.52 2.19V2.69ZM10.9714 2.79437C11.0299 2.8295 11.1106 2.92249 11.1828 3.13906L11.6572 2.98094C11.5694 2.71751 11.4367 2.4905 11.2286 2.36563L10.9714 2.79437ZM11.1826 3.13827L12.3826 6.77827L12.8574 6.62173L11.6574 2.98173L11.1826 3.13827ZM12.8667 6.74043L13.6467 1.98043L13.1533 1.89957L12.3733 6.65957L12.8667 6.74043ZM13.6475 1.97535C13.6674 1.83617 13.7147 1.77732 13.7587 1.74801L13.4813 1.33199C13.2853 1.46268 13.186 1.67049 13.1525 1.90464L13.6475 1.97535ZM13.7735 1.73734C13.8288 1.69432 13.9484 1.65 14.18 1.65V1.15C13.9049 1.15 13.6512 1.19902 13.4665 1.34266L13.7735 1.73734ZM14.18 1.65H17.6V1.15H14.18V1.65ZM17.6 1.65C17.7785 1.65 17.8678 1.68262 17.9066 1.70981C17.9292 1.72561 17.95 1.74774 17.95 1.82H18.45C18.45 1.61226 18.3708 1.42439 18.1934 1.30019C18.0322 1.18737 17.8215 1.15 17.6 1.15V1.65ZM17.9534 1.7789L17.9134 2.0189L18.4066 2.1011L18.4466 1.8611L17.9534 1.7789ZM17.9173 1.99983L14.8973 14.1798L15.3827 14.3002L18.4027 2.12016L17.9173 1.99983ZM14.8968 14.1821C14.8392 14.4242 14.7444 14.5606 14.6377 14.6345L14.9223 15.0455C15.1623 14.8794 15.3075 14.6158 15.3832 14.2979L14.8968 14.1821ZM14.6413 14.632C14.5402 14.6994 14.3642 14.75 14.08 14.75V15.25C14.4092 15.25 14.6998 15.1939 14.9187 15.048L14.6413 14.632ZM14.08 14.75H11.9V15.25H14.08V14.75ZM11.9 14.75C11.6336 14.75 11.4512 14.7011 11.331 14.6271L11.069 15.0529C11.2954 15.1923 11.5797 15.25 11.9 15.25V14.75ZM11.35 14.64C11.2496 14.5647 11.152 14.4219 11.0804 14.1713L10.5996 14.3087C10.688 14.6181 10.8304 14.8753 11.05 15.04L11.35 14.64ZM11.0805 14.1718L9.98052 10.2918L9.49948 10.4282L10.5995 14.3082L11.0805 14.1718ZM9.49948 10.2918L8.39948 14.1718L8.88052 14.3082L9.98052 10.4282L9.49948 10.2918ZM8.39962 14.1713C8.3295 14.4167 8.22819 14.558 8.1177 14.6345L8.4023 15.0455C8.63848 14.882 8.7905 14.6233 8.88038 14.3087L8.39962 14.1713ZM8.12133 14.632C8.01872 14.7004 7.84815 14.75 7.58 14.75V15.25C7.89852 15.25 8.18128 15.1929 8.39868 15.048L8.12133 14.632ZM7.58 14.75H5.4V15.25H7.58V14.75ZM19.06 14.72L18.8767 14.8902L18.8832 14.8968L19.06 14.72ZM19.06 1.68L18.8831 1.5031L18.8768 1.50989L19.06 1.68ZM29.14 2.6L28.9746 2.78748L28.9775 2.79001L29.14 2.6ZM29.14 9.76L28.9775 9.56999L28.9762 9.57117L29.14 9.76ZM23.6 10.94V10.69H23.35V10.94H23.6ZM23.32 14.72L23.1431 14.5431L23.1368 14.5499L23.32 14.72ZM25.36 7.2L25.1932 7.01362L25.1883 7.01825L25.36 7.2ZM25.36 5.14L25.1883 5.32182L25.1933 5.32631L25.36 5.14ZM23 4.8V4.55H22.75V4.8H23ZM23 7.54H22.75V7.79H23V7.54ZM20 14.75C19.5845 14.75 19.3536 14.66 19.2368 14.5432L18.8832 14.8968C19.1398 15.1533 19.5355 15.25 20 15.25V14.75ZM19.2432 14.5499C19.1304 14.4284 19.05 14.2154 19.05 13.86H18.55C18.55 14.278 18.6429 14.6382 18.8768 14.8901L19.2432 14.5499ZM19.05 13.86V2.54H18.55V13.86H19.05ZM19.05 2.54C19.05 2.18464 19.1304 1.97158 19.2432 1.85011L18.8768 1.50989C18.6429 1.76175 18.55 2.12202 18.55 2.54H19.05ZM19.2368 1.85678C19.3536 1.74 19.5845 1.65 20 1.65V1.15C19.5355 1.15 19.1398 1.24667 18.8832 1.50322L19.2368 1.85678ZM20 1.65H24.78V1.15H20V1.65ZM24.78 1.65C26.7562 1.65 28.1353 2.04695 28.9746 2.78746L29.3054 2.41254C28.3313 1.55305 26.8038 1.15 24.78 1.15V1.65ZM28.9775 2.79001C29.8254 3.51503 30.27 4.62808 30.27 6.18H30.77C30.77 4.53192 30.2946 3.2583 29.3025 2.40999L28.9775 2.79001ZM30.27 6.18C30.27 7.73192 29.8254 8.84497 28.9775 9.56999L29.3025 9.95001C30.2946 9.1017 30.77 7.82808 30.77 6.18H30.27ZM28.9762 9.57117C28.1366 10.2996 26.7631 10.69 24.8 10.69V11.19C26.8102 11.19 28.3301 10.7937 29.3038 9.94883L28.9762 9.57117ZM24.8 10.69H23.6V11.19H24.8V10.69ZM23.35 10.94V13.86H23.85V10.94H23.35ZM23.35 13.86C23.35 14.2111 23.265 14.4214 23.1432 14.5432L23.4968 14.8968C23.7483 14.6452 23.85 14.2822 23.85 13.86H23.35ZM23.1368 14.5499C23.0366 14.6578 22.8141 14.75 22.38 14.75V15.25C22.8525 15.25 23.2567 15.1556 23.5032 14.8901L23.1368 14.5499ZM22.38 14.75H20V15.25H22.38V14.75ZM24.36 7.79C24.8312 7.79 25.2329 7.66393 25.5317 7.38175L25.1883 7.01825C25.0071 7.1894 24.7422 7.29 24.36 7.29V7.79ZM25.5267 7.38631C25.8492 7.0978 25.99 6.67951 25.99 6.18H25.49C25.49 6.58716 25.3775 6.84887 25.1933 7.01369L25.5267 7.38631ZM25.99 6.18C25.99 5.6698 25.8506 5.2435 25.5267 4.95369L25.1933 5.32631C25.3761 5.48983 25.49 5.75686 25.49 6.18H25.99ZM25.5317 4.95825C25.2329 4.67607 24.8312 4.55 24.36 4.55V5.05C24.7422 5.05 25.0071 5.1506 25.1883 5.32175L25.5317 4.95825ZM24.36 4.55H23V5.05H24.36V4.55ZM22.75 4.8V7.54H23.25V4.8H22.75ZM23 7.79H24.36V7.29H23V7.79Z" fill="#FFF615"/>
</g>
<defs>
<filter id="filter0_d_14_206" x="0.299988" y="0.400024" width="31.22" height="15.6" filterUnits="userSpaceOnUse" color-interpolation-filters="sRGB">
<feFlood flood-opacity="0" result="BackgroundImageFix"/>
<feColorMatrix in="SourceAlpha" type="matrix" values="0 0 0 0 0 0 0 0 0 0 0 0 0 0 0 0 0 0 127 0" result="hardAlpha"/>
<feOffset/>
<feGaussianBlur stdDeviation="0.5"/>
<feComposite in2="hardAlpha" operator="out"/>
<feColorMatrix type="matrix" values="0 0 0 0 0 0 0 0 0 0 0 0 0 0 0 0 0 0 1 0"/>
<feBlend mode="normal" in2="BackgroundImageFix" result="effect1_dropShadow_14_206"/>
<feBlend mode="normal" in="SourceGraphic" in2="effect1_dropShadow_14_206" result="shape"/>
</filter>
</defs>
</svg>
